<?xml version="1.0" encoding="UTF-8"?><svg id="Capa_1" xmlns="http://www.w3.org/2000/svg" xmlns:xlink="http://www.w3.org/1999/xlink" viewBox="0 0 792 612"><defs><style>.cls-1{stroke-width:1.5px;}.cls-1,.cls-2,.cls-3,.cls-4,.cls-5,.cls-6{fill:none;stroke-miterlimit:10;}.cls-1,.cls-6{stroke:#2baae2;}.cls-2{stroke:url(#linear-gradient-2);}.cls-3{stroke:#009bd0;stroke-width:2px;}.cls-4{stroke:url(#linear-gradient);}.cls-5{stroke:#222d3b;}.cls-7{fill:#2baae2;}.cls-7,.cls-8,.cls-9,.cls-10{stroke-width:0px;}.cls-8{fill:#222d3b;}.cls-9{fill:#009bd0;}.cls-10{fill:#fff;}</style><linearGradient id="linear-gradient" x1="324.09" y1="380.21" x2="348.64" y2="380.21" gradientUnits="userSpaceOnUse"><stop offset="0" stop-color="#53a2da"/><stop offset=".32" stop-color="#57a8d9"/><stop offset=".75" stop-color="#64b9d8"/><stop offset=".98" stop-color="#6ec6d8"/></linearGradient><linearGradient id="linear-gradient-2" x1="430.8" y1="381.55" x2="455.36" y2="381.55" xlink:href="#linear-gradient"/></defs><rect class="cls-8" x="-6.11" y="-5.11" width="802.46" height="622.51"/><path class="cls-7" d="M497.52,395.86c-7.27.88-13.9-4.31-14.78-11.58-.41-3.38.52-6.8,2.55-9.52-.1-.21-.17-.43-.2-.68-.15-1.23.73-2.35,1.96-2.5,1.23-.15,2.35.73,2.5,1.96.15,1.23-.73,2.35-1.96,2.5-.24.03-.48,0-.71-.04-1.72,2.32-2.48,5.14-2.13,8.03.75,6.16,6.37,10.57,12.53,9.82,6.16-.75,10.57-6.37,9.82-12.54-.75-6.15-6.35-10.55-12.5-9.82-.1,1.03-.9,1.89-1.96,2.02-1.23.15-2.35-.73-2.5-1.96s.73-2.35,1.96-2.5c.65-.08,1.26.13,1.72.52.17-.03.33-.07.5-.09,7.27-.88,13.9,4.31,14.79,11.58.88,7.27-4.31,13.9-11.58,14.79ZM491.46,402.7c-.49-1.14-1.82-1.66-2.96-1.16-.35.15-.63.39-.85.67l-3.24-1.28,1.28-3.24c.17-.42.03-.9-.32-1.17-1.08-.83-2.06-1.78-2.91-2.84-.29-.35-.77-.47-1.19-.29l-3.12,1.36-3.35-7.7,3.25-1.41c.41-.18.65-.6.6-1.04-.14-1.26-.14-2.56,0-3.85.05-.45-.21-.88-.63-1.05l-3.32-1.31,1.22-3.1c.24-.02.49-.07.72-.17,1.14-.49,1.66-1.82,1.16-2.96-.49-1.14-1.82-1.66-2.96-1.16-1.14.49-1.66,1.82-1.16,2.96.09.21.22.4.37.56l-1.6,4.07c-.1.25-.09.53.01.77s.31.44.56.54l3.56,1.4c-.07.93-.07,1.86,0,2.77l-3.5,1.52c-.51.22-.75.82-.52,1.33l4.16,9.56c.22.51.82.75,1.33.52l3.36-1.46c.66.76,1.38,1.46,2.16,2.1l-1.37,3.49c-.1.25-.09.53.01.77s.31.44.56.54l4.53,1.78c.03.09.05.18.09.27.49,1.14,1.82,1.66,2.96,1.16,1.14-.49,1.66-1.82,1.16-2.96ZM519.19,384.7l-3.68-1.45c.03-.84,0-1.69-.09-2.52l3.62-1.57c.51-.22.75-.82.52-1.33l-4.16-9.56c-.22-.51-.82-.75-1.33-.52l-3.76,1.64c-.52-.56-1.07-1.09-1.66-1.58l1.47-3.74c.1-.25.09-.53-.01-.77-.11-.25-.31-.44-.56-.54l-2.43-.96c.14-.48.13-1.01-.09-1.51-.49-1.14-1.82-1.66-2.96-1.16-1.14.49-1.66,1.82-1.16,2.96.45,1.03,1.57,1.55,2.63,1.27l2.33.92-1.37,3.48c-.16.42-.03.89.32,1.17.89.7,1.72,1.49,2.46,2.35.29.34.76.45,1.17.27l3.51-1.53,3.35,7.7-3.38,1.47c-.42.18-.66.62-.6,1.07.17,1.19.21,2.41.13,3.61-.03.44.23.85.64,1.01l3.41,1.34-3.08,7.82-3.21-1.27c-.43-.17-.91-.03-1.18.34-.75,1.01-1.6,1.93-2.53,2.74-.33.29-.44.76-.26,1.17l1.45,3.34-2.96,1.29c-.63-.58-1.57-.77-2.41-.4-1.14.49-1.66,1.82-1.16,2.96.49,1.14,1.82,1.66,2.96,1.16.77-.33,1.24-1.05,1.33-1.82l3.99-1.73c.51-.22.75-.82.52-1.33l-1.57-3.6c.64-.6,1.24-1.25,1.8-1.94l3.45,1.36c.52.2,1.11-.05,1.31-.57l3.82-9.7c.2-.52-.05-1.11-.57-1.31Z"/><path class="cls-7" d="M390.41,380.69l1.83.94-.9,1.75-4.7-2.42,2.1-4.61,1.79.82-.72,1.58c1.33-.8,2.18-2.24,2.18-3.84,0-2.48-2.02-4.5-4.5-4.5-2.25,0-4.11,1.66-4.44,3.82.42.4.68.96.68,1.58,0,1.21-.98,2.19-2.19,2.19s-2.19-.98-2.19-2.19c0-1.07.77-1.96,1.79-2.15.58-2.97,3.21-5.22,6.35-5.22,3.57,0,6.47,2.9,6.47,6.47,0,2.48-1.39,4.68-3.55,5.77ZM406.29,402.26c0,1.21-.98,2.19-2.19,2.19-.8,0-1.5-.44-1.88-1.08h-6.24v1.41h-14.87v-1.46h-6.1c-.34.77-1.11,1.31-2,1.31-1.21,0-2.19-.98-2.19-2.19s.98-2.19,2.19-2.19c.81,0,1.51.45,1.89,1.1h6.21v-3.37h4.18v-4.55h2.27v-3.98c-.73-.36-1.24-1.1-1.24-1.96,0-1.21.98-2.19,2.19-2.19s2.19.98,2.19,2.19c0,.84-.48,1.56-1.17,1.93v4.01h2.68v4.6h3.77v3.37h6.11c.34-.78,1.11-1.33,2.01-1.33,1.21,0,2.19.98,2.19,2.19ZM394,399.99h-3.77v-4.6h-2.97v4.55h-4.18v2.85h10.93v-2.81ZM385.72,357.86c-.74,0-1.4.37-1.8.94-6.99.35-12.6,6.02-12.82,13.04-4.04.35-7.23,3.75-7.23,7.88v1.68c0,4.36,3.55,7.91,7.91,7.91h4.79c.35.74,1.1,1.26,1.98,1.26,1.21,0,2.19-.98,2.19-2.19s-.98-2.19-2.19-2.19c-.83,0-1.54.47-1.91,1.15h-4.85c-3.27,0-5.94-2.66-5.94-5.94v-1.68c0-3.27,2.66-5.94,5.94-5.94h1.36l-.06-1.24c0-.09-.01-.17-.01-.26,0-6.04,4.67-11.01,10.6-11.49.3.85,1.1,1.46,2.06,1.46,1.21,0,2.19-.98,2.19-2.19s-.98-2.19-2.19-2.19ZM406.73,371.94c-.36-1.5-1.06-2.84-2.01-3.96.02-.11.03-.23.03-.34,0-1.21-.98-2.19-2.19-2.19s-2.19.98-2.19,2.19.98,2.19,2.19,2.19c.33,0,.65-.08.93-.21.73.96,1.24,2.1,1.44,3.36l.12.76.77.07c3.09.27,5.42,2.81,5.42,5.91v1.68c0,3.28-2.66,5.94-5.94,5.94h-3.21c-.29-.87-1.1-1.5-2.07-1.5-1.21,0-2.19.98-2.19,2.19s.98,2.19,2.19,2.19c.73,0,1.37-.36,1.77-.91h3.51c4.36,0,7.91-3.55,7.91-7.91v-1.68c0-3.88-2.74-7.1-6.48-7.78Z"/><path class="cls-7" d="M308,380.3c-.11-.11-.24-.18-.38-.23-.23-5.52-1.43-11.82-7.76-17.24-1.52-1.48-3.17-2.32-4.77-3.13l-.53-.27c-2.13-2.08-4.89-2.78-8.01-2.04-.01,0-.03,0-.04,0h-.01c-4.11.04-8.36.09-14.13,4.71-6.4,5.63-8.83,14.79-8.4,21.37.26,3.97,1.49,6.9,3.47,8.23.17.12.37.17.56.17.32,0,.64-.16.84-.45.02-.03.03-.07.05-.11,0,.38,0,.76,0,1.11.03,1.17.78,2.21,1.87,2.6.4.14.79.27,1.18.39.25.96,1.12,1.68,2.16,1.68,1.24,0,2.24-1,2.24-2.24s-1-2.24-2.24-2.24c-.7,0-1.31.32-1.72.82-.31-.1-.63-.2-.95-.31-.31-.11-.52-.42-.53-.76-.1-3.38.51-8.43,1.95-16.33,1.75-7.63,7.79-14.92,13.74-16.6.8-.22,1.56-.34,2.27-.34,1.18,0,2.26.3,3.21.91-7.16,3.58-11.37,11.11-12.74,22.82-.79.35-1.34,1.13-1.34,2.05,0,1.24,1,2.24,2.24,2.24s2.24-1,2.24-2.24c0-.83-.45-1.54-1.12-1.93,1.36-11.43,5.52-18.53,12.59-21.57l.22.11c1.16.59,2.36,1.2,3.48,2.08-5.37,5.24-8.24,12.66-8.76,22.63-.03.56.4,1.03.96,1.06.02,0,.04,0,.05,0,.53,0,.98-.42,1.01-.96.49-9.51,3.2-16.51,8.26-21.39,5.37,4.96,6.3,10.48,6.46,15.77.2,2.79-.46,5.02-2.03,6.79-3.89,4.41-12.77,5.45-21.78,5.92-.56.03-.98.5-.95,1.06.03.54.47.96,1.01.96.02,0,.04,0,.05,0,9.45-.49,18.8-1.64,23.19-6.6,1.45-1.65,2.29-3.65,2.51-5.94.96,1.22,1.42,2.36,1.36,3.41-.12,1.99-2.05,3.49-3.47,4.58-.25.19-.48.37-.68.54-1.26,1.04-5.44,2.71-8.2,3.81-1.93.77-2.88,1.16-3.28,1.42-.2.13-.36.22-.52.32-.63.37-1.34.78-4.58,3.28-1.47,1.14-7.91,2.89-17.46.72l-.19-.04c-5.76-1.27-8.34-3.42-9.49-5-.59-.81-.71-1.68-.37-2.66.19-.56.53-1.12.93-1.63.11.02.22.03.34.03,1.24,0,2.24-1,2.24-2.24s-1-2.24-2.24-2.24-2.24,1-2.24,2.24c0,.38.1.72.26,1.04-1.53,2.03-2.16,4.43-.54,6.65,1.97,2.71,5.57,4.66,10.68,5.79l.18.04c3.43.78,6.52,1.09,9.18,1.09,5.06,0,8.58-1.11,9.96-2.18,3.13-2.42,3.81-2.82,4.36-3.13.19-.11.37-.22.61-.37.26-.17,1.67-.73,2.92-1.23,3.96-1.58,7.34-2.98,8.74-4.13.18-.15.4-.32.63-.5,1.62-1.26,4.07-3.15,4.24-6.05.12-1.98-.89-4.04-2.99-6.12ZM270.88,375.64c-1.23,6.7-1.86,11.4-1.98,14.82-.07-.17-.18-.32-.34-.43-1.41-.95-2.38-3.45-2.59-6.69-.39-6.09,1.84-14.55,7.69-19.7,2.96-2.37,5.44-3.4,7.75-3.86-4.85,3.37-9.07,9.5-10.53,15.85Z"/><path class="cls-7" d="M297.13,319.04c-6.59,0-12.43-.48-17.52-1.43-5.1-.95-9.41-2.79-12.95-5.53-3.54-2.73-6.24-6.7-8.1-11.9-1.86-5.21-2.8-11.94-2.8-20.19s.93-14.98,2.8-20.19c1.86-5.21,4.56-9.17,8.1-11.9,3.54-2.73,7.86-4.57,12.95-5.53,5.09-.95,10.93-1.43,17.52-1.43s12.58.48,17.61,1.43c5.03.95,9.29,2.79,12.77,5.53,3.48,2.73,6.12,6.7,7.92,11.9,1.8,5.21,2.7,11.94,2.7,20.19s-.9,15.15-2.7,20.29c-1.8,5.14-4.44,9.08-7.92,11.81-3.48,2.73-7.76,4.57-12.86,5.53-5.1.95-10.94,1.43-17.52,1.43M297.13,307.42c3.97,0,7.3-.7,9.97-2.1,2.67-1.4,4.69-4.06,6.06-8,1.36-3.93,2.05-9.72,2.05-17.33s-.69-13.39-2.05-17.33c-1.37-3.93-3.39-6.6-6.06-8-2.67-1.4-6-2.1-9.97-2.1s-7.15.7-9.88,2.1c-2.73,1.4-4.84,4.06-6.33,8-1.49,3.94-2.24,9.71-2.24,17.33s.74,13.4,2.24,17.33c1.49,3.94,3.6,6.6,6.33,8,2.73,1.4,6.03,2.1,9.88,2.1"/><path class="cls-9" d="M334.18,218.38c-3.91,0-7.07,3.17-7.07,7.07s3.16,7.07,7.07,7.07,7.07-3.17,7.07-7.07-3.17-7.07-7.07-7.07Z"/><circle class="cls-8" cx="267.88" cy="287.71" r="5.14"/><circle class="cls-8" cx="281.51" cy="309.45" r="5.14"/><path class="cls-5" d="M296.33,313.77c6.24,0,11.45-.86,15.65-2.58,4.19-1.72,7.36-5,9.5-9.85,2.14-4.85,3.22-11.97,3.22-21.35s-1.08-16.5-3.22-21.35c-2.15-4.85-5.32-8.13-9.5-9.85-4.2-1.72-9.41-2.58-15.65-2.58s-11.21.86-15.5,2.58c-4.29,1.72-7.6,5.01-9.94,9.85-2.34,4.85-3.51,11.96-3.51,21.35s1.17,16.5,3.51,21.35c2.34,4.85,5.65,8.13,9.94,9.85,4.29,1.72,9.46,2.58,15.5,2.58"/><path class="cls-7" d="M297.16,326.26c-7.64,0-14.53-.56-20.46-1.67-6.04-1.13-11.24-3.35-15.45-6.6-4.25-3.27-7.52-8.07-9.74-14.27-2.19-6.12-3.3-14.1-3.3-23.72s1.11-17.6,3.3-23.72c2.22-6.2,5.5-11,9.74-14.27,4.21-3.25,9.41-5.47,15.45-6.6,5.93-1.11,12.82-1.67,20.46-1.67s14.7.56,20.57,1.67l-.42,2.21c-5.73-1.08-12.51-1.63-20.15-1.63s-14.25.55-20.05,1.63c-5.69,1.06-10.57,3.14-14.49,6.17-3.9,3.01-6.93,7.47-9,13.25-2.1,5.87-3.17,13.6-3.17,22.97s1.07,17.1,3.17,22.97c2.07,5.79,5.1,10.25,9,13.25,3.93,3.03,8.81,5.11,14.5,6.17,5.8,1.08,12.54,1.63,20.05,1.63v2.24Z"/><circle class="cls-7" cx="317.31" cy="237.6" r="4.17"/><circle class="cls-7" cx="298.57" cy="325.38" r="4.17"/><path class="cls-9" d="M340.69,319.4c-7.61-.36-12.87-1.66-15.78-4.96-2.9-3.31-4.35-8.53-4.35-15.67v-50.44c0-4.08,3.3-7.38,7.38-7.38h10.65c3.08,0,5.58,2.5,5.58,5.58v51.07c0,4.54.58,7.69,1.74,9.44,1.16,1.75,3.23,2.63,6.19,2.63.63,0,1.44-.16,2.18-.32,3.28-.71,7.21,6.1-.71,8.98h-.04c-1.37.64-8.89,1.27-12.85,1.08"/><circle class="cls-8" cx="333.28" cy="267.1" r="6.91"/><circle class="cls-8" cx="333.28" cy="295.66" r="6.91"/><rect class="cls-8" x="332.62" y="239.55" width="1.32" height="85.22"/><path class="cls-10" d="M188.36,320.42c-2.98,0-6.26-.06-10.02-.19-3.67-.13-7.38-.4-11.01-.79-3.7-.39-7.07-1.06-10.02-1.99-2.33-.55-4.16-1.2-5.6-1.99-1.67-.91-2.89-2.58-3.63-4.98l-.06-.21c-.61-2.1-.16-4.31,1.22-6.06,1.42-1.78,3.66-2.85,6-2.85.64,0,1.28.08,1.91.23,1.37.34,2.79.65,4.21.92,4.3.83,8.59,1.4,12.75,1.72,4.17.32,7.99.48,11.37.48,2.98,0,6.2-.09,9.56-.29,3.31-.19,6.42-.63,9.25-1.31,2.66-.64,4.83-1.72,6.47-3.21,1.53-1.39,2.27-3.24,2.27-5.66,0-3.14-.77-5.17-2.29-6.03-1.79-1.01-4.35-1.53-7.59-1.53h-22.39c-5.93,0-11.35-.3-16.13-.89-5.09-.63-9.22-2.52-12.27-5.61-3.13-3.17-4.65-8.21-4.65-15.41,0-7.77,2.14-13.66,6.36-17.5,4.12-3.75,9.97-6.27,17.38-7.48,7.18-1.17,15.91-1.77,25.95-1.77,3.54,0,7.69.06,12.68.19,4.92.13,9.39.53,13.28,1.19,3.81.38,6.97.96,9.28,1.7,2.55.83,4.46,2.19,5.68,4.03,1.21,1.82,1.79,4.31,1.79,7.61,0,2.34-1.98,4.25-4.42,4.25-.51,0-1.01-.08-1.5-.25-.68-.24-1.47-.45-2.34-.65-3.13-.69-6.89-1.2-11.16-1.51-4.31-.32-8.88-.51-13.56-.58-4.73-.06-9.11-.1-13.02-.1-3.46,0-6.73.22-9.72.66-2.77.41-4.99,1.27-6.6,2.56-1.45,1.17-2.19,3.28-2.19,6.28,0,2.18.45,3.75,1.33,4.67.92.97,2.19,1.57,3.89,1.84,1.96.31,4.22.47,6.72.47h24.44c5.56,0,10.58.47,14.94,1.39,4.62.98,8.26,3.18,10.82,6.51,2.56,3.34,3.81,8.37,3.81,15.36,0,7.94-2.41,13.91-7.15,17.76-4.6,3.73-11.03,6.2-19.09,7.33-7.87,1.1-16.93,1.66-26.94,1.66"/><path class="cls-10" d="M373.09,316.2c-3.83,0-6.37-.58-7.6-1.75-1.23-1.16-1.85-3.73-1.85-7.7v-60.36c0-4.11,2.87-7.67,6.9-8.53l.08-.02c2.88-.62,6.09-1.23,9.66-1.85,3.56-.62,7.36-1.13,11.4-1.54,4.04-.41,8.04-.62,12.02-.62,5.2,0,9.69.41,13.46,1.23,3.76.82,6.98,2.29,9.65,4.42,2.67,2.12,4.96,5.24,6.88,9.35h-3.9c1.23-3.15,2.94-5.72,5.13-7.7,2.19-1.98,4.79-3.49,7.81-4.52,3.01-1.03,6.02-1.75,9.04-2.16,3.01-.41,5.75-.62,8.22-.62,8.9,0,15.88.79,20.95,2.36,5.06,1.58,8.73,4.32,10.99,8.22,2.26,3.9,3.39,9.35,3.39,16.33v46.84c0,3.7-.65,6.06-1.95,7.09-1.3,1.03-3.8,1.54-7.5,1.54h-10.13c-3.03,0-5.49-2.46-5.49-5.49v-50.8c0-5.61-1.17-9.35-3.49-11.19-2.33-1.85-5.82-2.77-10.47-2.77-2.19,0-4.39.31-6.57.92-2.19.62-4,1.47-5.44,2.57-1.44,1.1-2.16,2.4-2.16,3.9v58.61c0,2.34-1.9,4.24-4.24,4.24h-16.57c-2.34,0-4.24-1.9-4.24-4.24v-55.33c0-3.42-1.3-5.99-3.9-7.7-2.6-1.71-6.03-2.57-10.27-2.57-2.6,0-4.93.17-6.98.51-2.05.34-3.73.9-5.03,1.65-1.3.75-2.02,1.75-2.16,2.98v59.19c0,3.05-2.47,5.52-5.52,5.52h-10.09Z"/><path class="cls-10" d="M510.02,316.36c-3.83,0-6.37-.58-7.6-1.75-1.23-1.16-1.85-3.73-1.85-7.7v-60.36c0-4.12,2.87-7.67,6.9-8.54l.09-.02c2.87-.62,6.09-1.23,9.65-1.85,3.56-.62,7.36-1.13,11.4-1.54,4.04-.41,8.04-.62,12.02-.62,5.2,0,9.69.41,13.45,1.23,3.76.82,6.99,2.29,9.65,4.42,2.67,2.12,4.96,5.24,6.88,9.35h-3.9c1.23-3.15,2.94-5.72,5.14-7.7,2.19-1.98,4.79-3.49,7.8-4.52,3.01-1.02,6.03-1.75,9.04-2.16,3.01-.41,5.75-.62,8.22-.62,8.9,0,15.88.79,20.95,2.36,5.07,1.57,8.73,4.31,10.99,8.22,2.26,3.9,3.39,9.34,3.39,16.33v46.83c0,3.7-.65,6.06-1.95,7.09-1.3,1.03-3.8,1.54-7.5,1.54h-10.12c-3.03,0-5.49-2.46-5.49-5.49v-50.8c0-5.61-1.16-9.35-3.49-11.19-2.33-1.85-5.82-2.77-10.47-2.77-2.19,0-4.39.31-6.57.92-2.19.62-4,1.47-5.44,2.57-1.44,1.1-2.16,2.4-2.16,3.9v58.61c0,2.34-1.9,4.24-4.24,4.24h-16.57c-2.34,0-4.24-1.9-4.24-4.24v-55.33c0-3.42-1.3-5.99-3.9-7.7-2.6-1.71-6.03-2.57-10.27-2.57-2.6,0-4.93.17-6.98.51-2.05.34-3.73.89-5.03,1.64-1.3.75-2.02,1.75-2.16,2.98v59.19c0,3.05-2.47,5.52-5.52,5.52h-10.09Z"/><path class="cls-10" d="M639.47,232.24c1.37,0,2.7.35,4,1.05,1.3.7,2.32,1.71,3.04,3.01.73,1.31,1.09,2.67,1.09,4.09s-.36,2.75-1.07,4.05c-.72,1.29-1.72,2.3-3.01,3.02-1.29.72-2.64,1.07-4.05,1.07s-2.76-.36-4.05-1.07c-1.29-.72-2.3-1.72-3.02-3.02-.72-1.3-1.08-2.65-1.08-4.05s.36-2.78,1.09-4.09c.73-1.31,1.75-2.31,3.05-3.01,1.3-.7,2.64-1.05,4.01-1.05M639.47,233.59c-1.14,0-2.26.29-3.34.88-1.08.59-1.93,1.43-2.54,2.52-.61,1.09-.92,2.23-.92,3.41s.3,2.3.9,3.37c.6,1.08,1.44,1.92,2.52,2.52,1.08.6,2.21.9,3.38.9s2.3-.3,3.38-.9c1.08-.6,1.92-1.44,2.52-2.52.6-1.07.9-2.2.9-3.37s-.3-2.31-.91-3.41c-.61-1.09-1.46-1.93-2.54-2.52s-2.2-.88-3.34-.88M635.9,244.89v-8.77h3.01c1.03,0,1.77.08,2.23.24.46.16.83.44,1.1.85.27.4.41.83.41,1.29,0,.64-.23,1.2-.69,1.67-.46.48-1.06.74-1.82.8.31.13.56.28.74.46.35.34.79.93,1.3,1.74l1.07,1.72h-1.73l-.78-1.38c-.61-1.08-1.1-1.77-1.48-2.04-.26-.2-.64-.3-1.13-.3h-.83v3.72h-1.41ZM637.31,239.96h1.72c.82,0,1.38-.12,1.68-.37.3-.25.45-.57.45-.97,0-.26-.07-.49-.22-.7-.14-.2-.34-.36-.6-.46-.25-.1-.73-.15-1.42-.15h-1.61v2.65Z"/><rect class="cls-3" x="250.32" y="347.8" width="68.9" height="65.55" rx="8.76" ry="8.76"/><rect class="cls-3" x="355.46" y="348.54" width="68.9" height="65.55" rx="8.76" ry="8.76"/><rect class="cls-3" x="461.65" y="349.61" width="68.9" height="65.55" rx="8.76" ry="8.76"/><path class="cls-1" d="M128.81,277.42h-26.18v86.39l18.32,18.32h116.79"/><path class="cls-6" d="M649.84,277.42h26.18v86.39c-7.15,7.15-11.17,11.17-18.32,18.32h-116.79"/><circle class="cls-7" cx="131.5" cy="277.37" r="3.15"/><circle class="cls-7" cx="239.88" cy="382.86" r="3.15"/><circle class="cls-7" cx="542.06" cy="381.93" r="3.15"/><circle class="cls-7" cx="649.84" cy="277.42" r="3.15"/><line class="cls-4" x1="324.09" y1="380.21" x2="348.64" y2="380.21"/><line class="cls-2" x1="430.8" y1="381.55" x2="455.36" y2="381.55"/></svg>